<svg width="128" height="128" viewBox="0 0 128 128" fill="none" xmlns="http://www.w3.org/2000/svg">
<path d="M21.3333 106.667C18.4 106.667 15.8888 105.622 13.8 103.533C11.7111 101.444 10.6666 98.9333 10.6666 96V32C10.6666 29.0667 11.7111 26.5556 13.8 24.4667C15.8888 22.3778 18.4 21.3333 21.3333 21.3333H106.667C109.6 21.3333 112.111 22.3778 114.2 24.4667C116.289 26.5556 117.333 29.0667 117.333 32V96C117.333 98.9333 116.289 101.444 114.2 103.533C112.111 105.622 109.6 106.667 106.667 106.667H21.3333ZM106.667 42.6667L66.8 67.6C66.3555 67.8667 65.8889 68.0667 65.4 68.2C64.9111 68.3333 64.4444 68.4 64 68.4C63.5555 68.4 63.0889 68.3333 62.6 68.2C62.1111 68.0667 61.6444 67.8667 61.2 67.6L21.3333 42.6667V96H106.667V42.6667ZM64 58.6667L106.667 32H21.3333L64 58.6667ZM21.3333 44V36.1333V36.2667V36.2V44Z" fill="#0072C6"/>
</svg>
